<svg width="35" height="32" viewBox="0 0 35 32" fill="none" xmlns="http://www.w3.org/2000/svg">
<path d="M17.2346 28.5C17.3401 28.5 17.4457 28.4736 17.5512 28.4208C17.6568 28.3681 17.736 28.3153 17.7887 28.2625L30.7721 15.2792C31.0888 14.9625 31.3197 14.6063 31.4648 14.2104C31.6099 13.8146 31.6825 13.4188 31.6825 13.0229C31.6825 12.6007 31.6099 12.1983 31.4648 11.8156C31.3197 11.433 31.0888 11.0965 30.7721 10.8063L24.0429 4.07708C23.7526 3.76042 23.4162 3.52951 23.0335 3.38438C22.6509 3.23924 22.2485 3.16667 21.8263 3.16667C21.4304 3.16667 21.0346 3.23924 20.6388 3.38438C20.2429 3.52951 19.8867 3.76042 19.57 4.07708L19.1346 4.5125L22.0638 7.48125C22.4596 7.8507 22.7499 8.27292 22.9346 8.74792C23.1193 9.22292 23.2117 9.72431 23.2117 10.2521C23.2117 11.3604 22.8356 12.2906 22.0835 13.0427C21.3315 13.7948 20.4012 14.1708 19.2929 14.1708C18.7651 14.1708 18.2572 14.0785 17.769 13.8938C17.2808 13.709 16.8519 13.4319 16.4825 13.0625L13.5137 10.1333L6.58667 17.0604C6.5075 17.1396 6.44812 17.2253 6.40854 17.3177C6.36896 17.4101 6.34917 17.509 6.34917 17.6146C6.34917 17.8257 6.42833 18.017 6.58667 18.1885C6.745 18.3601 6.92972 18.4458 7.14083 18.4458C7.24639 18.4458 7.35194 18.4194 7.4575 18.3667C7.56306 18.3139 7.64222 18.2611 7.695 18.2083L13.0783 12.825L15.295 15.0417L9.95125 20.425C9.87208 20.5042 9.81271 20.5899 9.77312 20.6823C9.73354 20.7747 9.71375 20.8736 9.71375 20.9792C9.71375 21.1903 9.79292 21.375 9.95125 21.5333C10.1096 21.6917 10.2943 21.7708 10.5054 21.7708C10.611 21.7708 10.7165 21.7444 10.8221 21.6917C10.9276 21.6389 11.0068 21.5861 11.0596 21.5333L16.4429 16.1896L18.6596 18.4063L13.3158 23.7896C13.2367 23.8424 13.1773 23.9215 13.1377 24.0271C13.0981 24.1326 13.0783 24.2382 13.0783 24.3438C13.0783 24.5549 13.1575 24.7396 13.3158 24.8979C13.4742 25.0563 13.6589 25.1354 13.87 25.1354C13.9756 25.1354 14.0745 25.1156 14.1669 25.076C14.2592 25.0365 14.345 24.9771 14.4242 24.8979L19.8075 19.5542L22.0242 21.7708L16.6408 27.1542C16.5617 27.2333 16.5023 27.3191 16.4627 27.4115C16.4231 27.5038 16.4033 27.6028 16.4033 27.7083C16.4033 27.9194 16.4891 28.1042 16.6606 28.2625C16.8322 28.4208 17.0235 28.5 17.2346 28.5ZM17.195 31.6667C16.2186 31.6667 15.3544 31.3434 14.6023 30.6969C13.8502 30.0503 13.4082 29.2389 13.2762 28.2625C12.379 28.1306 11.6269 27.7611 11.02 27.1542C10.4131 26.5472 10.0436 25.7951 9.91167 24.8979C9.01444 24.766 8.26896 24.3899 7.67521 23.7698C7.08146 23.1497 6.71861 22.4042 6.58667 21.5333C5.58389 21.4014 4.76583 20.966 4.1325 20.2271C3.49917 19.4882 3.1825 18.6174 3.1825 17.6146C3.1825 17.0868 3.28146 16.5788 3.47938 16.0906C3.67729 15.6024 3.96097 15.1736 4.33042 14.8042L13.5137 5.66042L18.6992 10.8458C18.7519 10.925 18.8311 10.9844 18.9367 11.024C19.0422 11.0635 19.1478 11.0833 19.2533 11.0833C19.4908 11.0833 19.6887 11.0108 19.8471 10.8656C20.0054 10.7205 20.0846 10.5292 20.0846 10.2917C20.0846 10.1861 20.0648 10.0806 20.0252 9.975C19.9856 9.86945 19.9262 9.79028 19.8471 9.7375L14.1867 4.07708C13.8964 3.76042 13.5599 3.52951 13.1773 3.38438C12.7947 3.23924 12.3922 3.16667 11.97 3.16667C11.5742 3.16667 11.1783 3.23924 10.7825 3.38438C10.3867 3.52951 10.0304 3.76042 9.71375 4.07708L4.1325 9.69792C3.895 9.93542 3.69708 10.2125 3.53875 10.5292C3.38042 10.8458 3.27486 11.1625 3.22208 11.4792C3.16931 11.7958 3.16931 12.1191 3.22208 12.449C3.27486 12.7788 3.38042 13.0889 3.53875 13.3792L1.24292 15.675C0.794306 15.0681 0.464444 14.4017 0.253333 13.676C0.0422222 12.9503 -0.0369444 12.2181 0.0158333 11.4792C0.0686111 10.7403 0.253333 10.0212 0.57 9.32188C0.886667 8.62257 1.32208 7.99583 1.87625 7.44167L7.4575 1.86042C8.09083 1.25347 8.79674 0.791667 9.57521 0.475C10.3537 0.158333 11.1519 0 11.97 0C12.7881 0 13.5863 0.158333 14.3648 0.475C15.1433 0.791667 15.836 1.25347 16.4429 1.86042L16.8783 2.29583L17.3137 1.86042C17.9471 1.25347 18.653 0.791667 19.4315 0.475C20.2099 0.158333 21.0082 0 21.8263 0C22.6443 0 23.4426 0.158333 24.221 0.475C24.9995 0.791667 25.6922 1.25347 26.2992 1.86042L32.9888 8.55C33.5957 9.15695 34.0575 9.85625 34.3742 10.6479C34.6908 11.4396 34.8492 12.2444 34.8492 13.0625C34.8492 13.8806 34.6908 14.6788 34.3742 15.4573C34.0575 16.2358 33.5957 16.9285 32.9888 17.5354L20.0054 30.4792C19.636 30.8486 19.2072 31.1389 18.719 31.35C18.2308 31.5611 17.7228 31.6667 17.195 31.6667Z" fill="#4B4B4D"/>
</svg>
