<svg width="28" height="28" viewBox="0 0 28 28" fill="none" xmlns="http://www.w3.org/2000/svg">
<path d="M14.354 27.6039L17.356 24.8435C19.8173 22.5432 21.4506 20.7892 22.2557 19.5815C23.0608 18.3739 23.4634 17.0799 23.4634 15.6997C23.4634 15.1017 23.3828 14.5381 23.2218 14.009C23.0608 13.4799 22.8193 12.9508 22.4972 12.4218H24.8435C25.6027 12.4218 26.2525 12.6921 26.7931 13.2326C27.3337 13.7732 27.6039 14.4231 27.6039 15.1822V27.6039H14.354ZM0 27.6039V15.1822C0 14.4231 0.264538 13.7732 0.793613 13.2326C1.32269 12.6921 1.97828 12.4218 2.76039 12.4218H5.07222C4.77318 12.9048 4.54315 13.4282 4.38213 13.9917C4.2211 14.5553 4.14059 15.1247 4.14059 15.6997C4.14059 17.0799 4.5259 18.3739 5.29651 19.5815C6.06712 20.7892 7.7061 22.5432 10.2135 24.8435L13.2499 27.6039H0ZM23.4634 11.0416C22.2902 11.0416 21.3068 10.6448 20.5132 9.85116C19.7196 9.05754 19.3228 8.07415 19.3228 6.90099C19.3228 5.75082 19.7196 4.77318 20.5132 3.96807C21.3068 3.16295 22.2902 2.76039 23.4634 2.76039C24.6135 2.76039 25.5912 3.16295 26.3963 3.96807C27.2014 4.77318 27.6039 5.75082 27.6039 6.90099C27.6039 8.07415 27.2014 9.05754 26.3963 9.85116C25.5912 10.6448 24.6135 11.0416 23.4634 11.0416ZM13.802 9.66138C12.4448 9.66138 11.3004 9.19556 10.3687 8.26393C9.4371 7.3323 8.97128 6.18788 8.97128 4.83069C8.97128 3.4965 9.4371 2.35784 10.3687 1.4147C11.3004 0.471567 12.4448 0 13.802 0C15.1362 0 16.2748 0.471567 17.218 1.4147C18.1611 2.35784 18.6327 3.4965 18.6327 4.83069C18.6327 6.18788 18.1611 7.3323 17.218 8.26393C16.2748 9.19556 15.1362 9.66138 13.802 9.66138ZM6.90099 15.6997C6.90099 16.6429 7.36105 17.701 8.28118 18.8742C9.20131 20.0474 11.0301 21.8761 13.7675 24.3605C16.4819 21.9221 18.3164 20.1106 19.271 18.926C20.2256 17.7413 20.703 16.6659 20.703 15.6997C20.703 14.7796 20.3924 14.0033 19.7713 13.3707C19.1502 12.7381 18.4026 12.4218 17.5285 12.4218C16.9994 12.4218 16.5049 12.5483 16.0448 12.8013C15.5847 13.0544 15.1822 13.3649 14.8371 13.733L13.7675 14.8371L12.7323 13.7675C12.4103 13.4224 12.0422 13.1119 11.6282 12.8358C11.2141 12.5598 10.6965 12.4218 10.0754 12.4218C9.1323 12.4218 8.36744 12.7381 7.78086 13.3707C7.19428 14.0033 6.90099 14.7796 6.90099 15.6997ZM4.14059 11.0416C2.96742 11.0416 1.98403 10.6448 1.19042 9.85116C0.396807 9.05754 0 8.07415 0 6.90099C0 5.75082 0.396807 4.77318 1.19042 3.96807C1.98403 3.16295 2.96742 2.76039 4.14059 2.76039C5.29076 2.76039 6.26839 3.16295 7.07351 3.96807C7.87863 4.77318 8.28118 5.75082 8.28118 6.90099C8.28118 8.07415 7.87863 9.05754 7.07351 9.85116C6.26839 10.6448 5.29076 11.0416 4.14059 11.0416Z" fill="white"/>
</svg>
