<svg width="35" height="29" viewBox="0 0 35 29" fill="none" xmlns="http://www.w3.org/2000/svg">
<path d="M17.4167 28.5C16.15 27.4972 14.7778 26.7188 13.3 26.1646C11.8222 25.6104 10.2917 25.3333 8.70833 25.3333C7.6 25.3333 6.51146 25.4785 5.44271 25.7687C4.37396 26.059 3.35139 26.4681 2.375 26.9958C1.82083 27.2861 1.28646 27.2729 0.771875 26.9562C0.257292 26.6396 0 26.1778 0 25.5708V6.49167C0 6.20139 0.0725694 5.92431 0.217708 5.66042C0.362847 5.39653 0.580556 5.19861 0.870833 5.06667C2.08472 4.43333 3.35139 3.95833 4.67083 3.64167C5.99028 3.325 7.33611 3.16667 8.70833 3.16667C10.6611 3.16667 12.3236 3.39097 13.6958 3.83958C15.0681 4.28819 16.5458 4.97431 18.1292 5.89792C18.4194 6.05625 18.6372 6.24097 18.7823 6.45208C18.9274 6.66319 19 6.94028 19 7.28333V23.8292C20.1611 23.275 21.3288 22.8594 22.5031 22.5823C23.6774 22.3052 24.8847 22.1667 26.125 22.1667C27.075 22.1667 28.0052 22.2458 28.9156 22.4042C29.826 22.5625 30.7431 22.8 31.6667 23.1167V4.07708C32.0625 4.20903 32.4517 4.35417 32.8344 4.5125C33.217 4.67083 33.5931 4.85556 33.9625 5.06667C34.2528 5.19861 34.4705 5.39653 34.6156 5.66042C34.7608 5.92431 34.8333 6.20139 34.8333 6.49167V25.5708C34.8333 26.1778 34.576 26.6396 34.0615 26.9562C33.5469 27.2729 33.0125 27.2861 32.4583 26.9958C31.4819 26.4681 30.4594 26.059 29.3906 25.7687C28.3219 25.4785 27.2333 25.3333 26.125 25.3333C24.5417 25.3333 23.0111 25.6104 21.5333 26.1646C20.0556 26.7188 18.6833 27.4972 17.4167 28.5ZM22.9583 19V1.58333L27.7083 0V17.4167L22.9583 19Z" fill="white"/>
</svg>
