<svg width="29" height="32" viewBox="0 0 29 32" fill="none" xmlns="http://www.w3.org/2000/svg">
<path d="M18.2083 25.3333C17.1 25.3333 16.1632 24.9507 15.3979 24.1854C14.6326 23.4201 14.25 22.4833 14.25 21.375C14.25 20.2667 14.6326 19.3299 15.3979 18.5646C16.1632 17.7993 17.1 17.4167 18.2083 17.4167C19.3167 17.4167 20.2535 17.7993 21.0188 18.5646C21.784 19.3299 22.1667 20.2667 22.1667 21.375C22.1667 22.4833 21.784 23.4201 21.0188 24.1854C20.2535 24.9507 19.3167 25.3333 18.2083 25.3333ZM3.16667 31.6667C2.29583 31.6667 1.55035 31.3566 0.930208 30.7365C0.31007 30.1163 0 29.3708 0 28.5V6.33333C0 5.4625 0.31007 4.71701 0.930208 4.09687C1.55035 3.47674 2.29583 3.16667 3.16667 3.16667H4.75V0H7.91667V3.16667H20.5833V0H23.75V3.16667H25.3333C26.2042 3.16667 26.9497 3.47674 27.5698 4.09687C28.1899 4.71701 28.5 5.4625 28.5 6.33333V28.5C28.5 29.3708 28.1899 30.1163 27.5698 30.7365C26.9497 31.3566 26.2042 31.6667 25.3333 31.6667H3.16667ZM3.16667 28.5H25.3333V12.6667H3.16667V28.5Z" fill="white"/>
</svg>
