<svg width="35" height="29" viewBox="0 0 35 29" fill="none" xmlns="http://www.w3.org/2000/svg">
<path d="M8.70801 3.66699C10.6251 3.66699 12.2322 3.88698 13.54 4.31445C14.871 4.74958 16.3165 5.4198 17.877 6.33008L17.8838 6.33301L17.8896 6.33691C18.1303 6.46819 18.2805 6.60503 18.3701 6.73535C18.4414 6.8391 18.5 7.0077 18.5 7.2832V24.6221L19.2158 24.2803C20.3468 23.7405 21.4809 23.3377 22.6182 23.0693C23.7538 22.8014 24.9223 22.667 26.125 22.667C27.0471 22.667 27.9487 22.7432 28.8301 22.8965C29.7131 23.0501 30.6048 23.2813 31.5049 23.5898L32.167 23.8164V4.78613C32.3269 4.84673 32.486 4.90943 32.6436 4.97461C33.006 5.12461 33.3634 5.30013 33.7148 5.50098L33.7344 5.5127L33.7559 5.52148C33.9541 5.61161 34.0877 5.73772 34.1777 5.90137C34.2837 6.09414 34.3329 6.2886 34.333 6.49121V25.5713C34.3329 26.0052 34.1653 26.3052 33.7998 26.5303C33.4866 26.723 33.182 26.7582 32.8398 26.6221L32.6904 26.5527C31.682 26.0082 30.6253 25.5859 29.5215 25.2861C28.41 24.9843 27.2775 24.833 26.125 24.833C24.4819 24.833 22.8915 25.121 21.3574 25.6963C19.9494 26.2243 18.6362 26.9509 17.416 27.8711C16.196 26.9512 14.8833 26.2242 13.4756 25.6963C11.9415 25.121 10.3511 24.833 8.70801 24.833C7.55556 24.833 6.42292 24.9843 5.31152 25.2861C4.20764 25.586 3.15102 26.0082 2.14258 26.5527C1.73797 26.7646 1.39209 26.7505 1.03418 26.5303C0.668417 26.3052 0.500118 26.0053 0.5 25.5713V6.49121C0.500074 6.28857 0.55021 6.09417 0.65625 5.90137C0.746269 5.73779 0.879927 5.61157 1.07812 5.52148L1.08984 5.5166L1.10254 5.50977C2.28021 4.89537 3.50813 4.43492 4.78711 4.12793C6.0678 3.82056 7.37475 3.66702 8.70801 3.66699ZM27.208 17.0557L23.458 18.3057V1.94336L27.208 0.693359V17.0557ZM16.333 7.94629L16.0859 7.80176C14.9644 7.14527 13.7738 6.65244 12.5156 6.32422C11.2611 5.99697 9.99128 5.83301 8.70801 5.83301C7.72548 5.83303 6.74964 5.92917 5.78125 6.12012C4.81111 6.31143 3.8744 6.59849 2.97168 6.98145L2.66699 7.11035V23.8164L3.3291 23.5898C4.22898 23.2813 5.12009 23.05 6.00293 22.8965C6.88417 22.7432 7.78603 22.667 8.70801 22.667C9.91071 22.667 11.0802 22.8014 12.2158 23.0693C13.3531 23.3377 14.4873 23.7405 15.6182 24.2803L16.333 24.6221V7.94629Z" fill="#4B4B4D" stroke="black"/>
</svg>
