<svg width="38" height="38" viewBox="0 0 38 38" fill="none" xmlns="http://www.w3.org/2000/svg">
<path d="M19 19.0955C19.9025 19.0955 20.6716 18.7775 21.3073 18.1415C21.9432 17.5058 22.2612 16.7367 22.2612 15.8342C22.2612 14.9317 21.9432 14.1626 21.3073 13.5269C20.6716 12.8909 19.9025 12.5729 19 12.5729C18.0975 12.5729 17.3283 12.8909 16.6926 13.5269C16.0567 14.1626 15.7387 14.9317 15.7387 15.8342C15.7387 16.7367 16.0567 17.5058 16.6926 18.1415C17.3283 18.7775 18.0975 19.0955 19 19.0955ZM19 30.3826C22.1753 27.4778 24.5336 24.8575 26.0747 22.5218C27.6158 20.1858 28.3864 18.0495 28.3864 16.1128C28.3864 13.2811 27.4803 10.9623 25.6682 9.15647C23.856 7.35068 21.6332 6.44779 18.9996 6.44779C16.3662 6.44779 14.1435 7.35068 12.3313 9.15647C10.5195 10.9623 9.61356 13.2811 9.61356 16.1128C9.61356 18.0495 10.3841 20.1843 11.9252 22.517C13.4663 24.8496 15.8246 27.4714 19 30.3826ZM19 35.156C14.6503 31.4776 11.3981 28.0802 9.24345 24.9637C7.0888 21.8472 6.01147 18.8969 6.01147 16.1128C6.01147 12.068 7.31707 8.84561 9.92825 6.44581C12.5394 4.04574 15.5633 2.8457 19 2.8457C22.4366 2.8457 25.4605 4.04574 28.0717 6.44581C30.6828 8.84561 31.9884 12.068 31.9884 16.1128C31.9884 18.8969 30.9111 21.8472 28.7565 24.9637C26.6018 28.0802 23.3496 31.4776 19 35.156Z" fill="#4B4B4D"/>
</svg>
