<svg width="40" height="39" viewBox="0 0 40 39" fill="none" xmlns="http://www.w3.org/2000/svg">
<path fill-rule="evenodd" clip-rule="evenodd" d="M0 39C1.05893 35.5812 2.28629 32.3308 3.40839 28.9753C-4.02979 15.9662 5.17535 1.32103 17.6433 0.104492C29.4151 -1.04427 39.0667 7.41114 39.096 18.9507C39.1267 31.1267 27.3176 41.3511 14.0344 37.1953C13.0324 36.8819 11.7926 35.8605 10.626 35.7919C8.9956 35.6959 6.85889 36.8665 5.21264 37.3959C3.40819 37.9764 1.83914 38.5581 0 39ZM11.027 32.1832C21.7537 38.6932 34.598 31.3914 35.6876 20.7551C36.6738 11.1265 28.9855 2.55922 18.6457 3.31236C6.84124 4.17198 -0.249442 18.2627 7.0171 28.5743C6.37384 30.3371 5.77188 32.1411 5.21264 33.9877C7.18212 33.4174 8.9976 32.6933 11.027 32.1832Z" fill="white"/>
<path fill-rule="evenodd" clip-rule="evenodd" d="M15.2375 9.92878C16.3658 12.2889 18.1111 15.7797 15.2375 17.3471C16.6969 20.4323 19.1097 22.564 22.2546 23.9634C23.3005 23.2716 23.9873 22.2207 24.8611 21.357C26.6866 22.0711 28.393 22.904 29.8733 23.9634C30.0254 27.4125 27.1189 28.688 24.6606 28.5747C19.4742 28.336 12.3461 21.7837 10.6262 16.9461C9.60558 14.0757 10.7794 8.58552 15.2375 9.92878Z" fill="white"/>
</svg>
