<svg width="38" height="38" viewBox="0 0 38 38" fill="none" xmlns="http://www.w3.org/2000/svg">
<path d="M6.33334 33.25C5.46251 33.25 4.71702 32.9399 4.09688 32.3198C3.47674 31.6997 3.16667 30.9542 3.16667 30.0833V7.91667C3.16667 7.04583 3.47674 6.30035 4.09688 5.68021C4.71702 5.06007 5.46251 4.75 6.33334 4.75H31.6667C32.5375 4.75 33.283 5.06007 33.9031 5.68021C34.5233 6.30035 34.8333 7.04583 34.8333 7.91667V30.0833C34.8333 30.9542 34.5233 31.6997 33.9031 32.3198C33.283 32.9399 32.5375 33.25 31.6667 33.25H6.33334ZM6.33334 30.0833H31.6667V7.91667H6.33334V30.0833ZM9.5 26.9167H28.5V23.75H9.5V26.9167ZM9.5 20.5833H15.8333V11.0833H9.5V20.5833ZM19 20.5833H28.5V17.4167H19V20.5833ZM19 14.25H28.5V11.0833H19V14.25Z" fill="#4B4B4D"/>
</svg>
