<svg width="29" height="29" viewBox="0 0 29 29" fill="none" xmlns="http://www.w3.org/2000/svg">
<path d="M3.16667 28.5C2.29583 28.5 1.55035 28.1899 0.930208 27.5698C0.310069 26.9497 0 26.2042 0 25.3333V3.16667C0 2.29583 0.310069 1.55035 0.930208 0.930208C1.55035 0.310069 2.29583 0 3.16667 0H20.5833L28.5 7.91667V25.3333C28.5 26.2042 28.1899 26.9497 27.5698 27.5698C26.9497 28.1899 26.2042 28.5 25.3333 28.5H3.16667ZM3.16667 25.3333H25.3333V9.5H19V3.16667H3.16667V25.3333ZM6.33333 22.1667H22.1667V19H6.33333V22.1667ZM6.33333 9.5H14.25V6.33333H6.33333V9.5ZM6.33333 15.8333H22.1667V12.6667H6.33333V15.8333Z" fill="#4B4B4D"/>
</svg>
