<svg width="32" height="29" viewBox="0 0 32 29" fill="none" xmlns="http://www.w3.org/2000/svg">
<path d="M3.167 28.5C2.29607 28.5 1.55051 28.1899 0.930306 27.5698C0.310102 26.9497 0 26.2042 0 25.3333V3.16667C0 2.29583 0.310102 1.55035 0.930306 0.930208C1.55051 0.310069 2.29607 0 3.167 0H28.503C29.3739 0 30.1195 0.310069 30.7397 0.930208C31.3599 1.55035 31.67 2.29583 31.67 3.16667V25.3333C31.67 26.2042 31.3599 26.9497 30.7397 27.5698C30.1195 28.1899 29.3739 28.5 28.503 28.5H3.167ZM6.334 22.1667H25.336V19H6.334V22.1667ZM6.334 15.8333H12.668V6.33333H6.334V15.8333ZM15.835 15.8333H25.336V12.6667H15.835V15.8333ZM15.835 9.5H25.336V6.33333H15.835V9.5Z" fill="white"/>
</svg>
