<svg width="29" height="29" viewBox="0 0 29 29" fill="none" xmlns="http://www.w3.org/2000/svg">
<path d="M26.7583 28.5L16.3479 18.0896C15.5562 18.7757 14.6332 19.3101 13.5787 19.6927C12.5242 20.0753 11.4021 20.2667 10.2125 20.2667C7.35828 20.2667 4.94264 19.2771 2.96558 17.2979C0.988528 15.3187 0 12.9306 0 10.1333C0 7.33611 0.989583 4.94792 2.96875 2.96875C4.94792 0.989583 7.34271 0 10.1531 0C12.9635 0 15.3517 0.989583 17.3177 2.96875C19.2837 4.94792 20.2667 7.33809 20.2667 10.1393C20.2667 11.27 20.0819 12.3632 19.7125 13.4188C19.3431 14.4743 18.7889 15.4639 18.05 16.3875L28.5 26.7583L26.7583 28.5ZM10.1729 17.8917C12.317 17.8917 14.1396 17.133 15.6406 15.6156C17.1413 14.0983 17.8917 12.2708 17.8917 10.1333C17.8917 7.99583 17.1413 6.1684 15.6406 4.65104C14.1396 3.13368 12.317 2.375 10.1729 2.375C8.00692 2.375 6.16576 3.13368 4.64946 4.65104C3.13315 6.1684 2.375 7.99583 2.375 10.1333C2.375 12.2708 3.13315 14.0983 4.64946 15.6156C6.16576 17.133 8.00692 17.8917 10.1729 17.8917Z" fill="#4B4B4D"/>
</svg>
