<svg width="35" height="26" viewBox="0 0 35 26" fill="none" xmlns="http://www.w3.org/2000/svg">
<path d="M0 25.3333V19C0 18.1028 0.310069 17.3507 0.930208 16.7437C1.55035 16.1368 2.29583 15.8333 3.16667 15.8333H8.35208C8.87986 15.8333 9.38125 15.9653 9.85625 16.2292C10.3312 16.4931 10.7139 16.8493 11.0042 17.2979C11.7694 18.3271 12.7128 19.1319 13.8344 19.7125C14.9559 20.2931 16.15 20.5833 17.4167 20.5833C18.7097 20.5833 19.917 20.2931 21.0385 19.7125C22.1601 19.1319 23.0903 18.3271 23.8292 17.2979C24.1722 16.8493 24.5747 16.4931 25.0365 16.2292C25.4983 15.9653 25.9799 15.8333 26.4812 15.8333H31.6667C32.5639 15.8333 33.316 16.1368 33.9229 16.7437C34.5299 17.3507 34.8333 18.1028 34.8333 19V25.3333H23.75V21.7312C22.8264 22.391 21.8302 22.8924 20.7615 23.2354C19.6927 23.5785 18.5778 23.75 17.4167 23.75C16.2819 23.75 15.1736 23.5719 14.0917 23.2156C13.0097 22.8594 12.0069 22.3514 11.0833 21.6917V25.3333H0ZM17.4167 19C16.4139 19 15.4639 18.7691 14.5667 18.3073C13.6694 17.8455 12.9174 17.2056 12.3104 16.3875C11.8618 15.7278 11.301 15.2066 10.6281 14.824C9.95521 14.4413 9.22292 14.25 8.43125 14.25C9.01181 13.2736 10.2389 12.5017 12.1125 11.9344C13.9861 11.367 15.7542 11.0833 17.4167 11.0833C19.0792 11.0833 20.8472 11.367 22.7208 11.9344C24.5944 12.5017 25.8215 13.2736 26.4021 14.25C25.6368 14.25 24.9111 14.4413 24.225 14.824C23.5389 15.2066 22.9715 15.7278 22.5229 16.3875C21.9424 17.2319 21.2035 17.8785 20.3062 18.3271C19.409 18.7757 18.4458 19 17.4167 19ZM4.75 14.25C3.43056 14.25 2.30903 13.7882 1.38542 12.8646C0.461806 11.941 0 10.8194 0 9.5C0 8.15417 0.461806 7.02604 1.38542 6.11562C2.30903 5.20521 3.43056 4.75 4.75 4.75C6.09583 4.75 7.22396 5.20521 8.13437 6.11562C9.04479 7.02604 9.5 8.15417 9.5 9.5C9.5 10.8194 9.04479 11.941 8.13437 12.8646C7.22396 13.7882 6.09583 14.25 4.75 14.25ZM30.0833 14.25C28.7639 14.25 27.6424 13.7882 26.7187 12.8646C25.7951 11.941 25.3333 10.8194 25.3333 9.5C25.3333 8.15417 25.7951 7.02604 26.7187 6.11562C27.6424 5.20521 28.7639 4.75 30.0833 4.75C31.4292 4.75 32.5573 5.20521 33.4677 6.11562C34.3781 7.02604 34.8333 8.15417 34.8333 9.5C34.8333 10.8194 34.3781 11.941 33.4677 12.8646C32.5573 13.7882 31.4292 14.25 30.0833 14.25ZM17.4167 9.5C16.0972 9.5 14.9757 9.03819 14.0521 8.11458C13.1285 7.19097 12.6667 6.06944 12.6667 4.75C12.6667 3.40417 13.1285 2.27604 14.0521 1.36562C14.9757 0.455208 16.0972 0 17.4167 0C18.7625 0 19.8906 0.455208 20.801 1.36562C21.7115 2.27604 22.1667 3.40417 22.1667 4.75C22.1667 6.06944 21.7115 7.19097 20.801 8.11458C19.8906 9.03819 18.7625 9.5 17.4167 9.5Z" fill="#4B4B4D"/>
</svg>
