<svg width="28" height="28" viewBox="0 0 28 28" fill="none" xmlns="http://www.w3.org/2000/svg">
<path fill-rule="evenodd" clip-rule="evenodd" d="M0 27.9263C0.758256 25.4782 1.63712 23.1507 2.4406 20.748C-2.88557 11.4327 3.70585 0.945934 12.6336 0.0748226C21.0629 -0.747758 27.9741 5.3068 27.995 13.5698C28.017 22.2885 19.561 29.6098 10.0494 26.634C9.33197 26.4096 8.4442 25.6782 7.60884 25.6291C6.44137 25.5603 4.91136 26.3986 3.73256 26.7776C2.44046 27.1933 1.31693 27.6098 0 27.9263ZM7.896 23.0451C15.5769 27.7066 24.7742 22.4781 25.5544 14.8619C26.2606 7.96723 20.7553 1.83255 13.3514 2.37185C4.89873 2.98738 -0.178615 13.0772 5.02465 20.4609C4.56404 21.7231 4.13301 23.0149 3.73256 24.3372C5.14282 23.9288 6.44281 23.4103 7.896 23.0451Z" fill="#4B4B4D"/>
<path fill-rule="evenodd" clip-rule="evenodd" d="M10.9109 7.10993C11.7188 8.79989 12.9685 11.2995 10.9109 12.4219C11.9559 14.631 13.6836 16.1575 15.9355 17.1595C16.6844 16.6642 17.1762 15.9116 17.8019 15.2932C19.1091 15.8045 20.331 16.401 21.3909 17.1595C21.4999 19.6293 19.4187 20.5426 17.6584 20.4615C13.9446 20.2906 8.84042 15.5988 7.60892 12.1347C6.87808 10.0793 7.71861 6.14808 10.9109 7.10993Z" fill="#4B4B4D"/>
</svg>
